<svg width="40" height="40" viewBox="0 0 40 40" fill="none" xmlns="http://www.w3.org/2000/svg">
<path d="M4.16667 14.7666L19.1667 23.4333C19.42 23.5796 19.7074 23.6566 20 23.6566C20.2926 23.6566 20.58 23.5796 20.8333 23.4333L35.8333 14.7666C36.0852 14.6212 36.2947 14.4124 36.4409 14.1609C36.5871 13.9095 36.6649 13.6242 36.6667 13.3333C36.6678 13.0396 36.5914 12.7508 36.445 12.4962C36.2987 12.2416 36.0877 12.0301 35.8333 11.8833L20.8333 3.2333C20.58 3.08702 20.2926 3.01001 20 3.01001C19.7074 3.01001 19.42 3.08702 19.1667 3.2333L4.16667 11.8833C3.91233 12.0301 3.7013 12.2416 3.55496 12.4962C3.40862 12.7508 3.33217 13.0396 3.33333 13.3333C3.33509 13.6242 3.41293 13.9095 3.55912 14.1609C3.70532 14.4124 3.91477 14.6212 4.16667 14.7666V14.7666ZM20 6.66663L31.6667 13.3333L20 20L8.33333 13.3333L20 6.66663ZM34.1667 18.6166L20 26.6666L5.83333 18.55C5.64311 18.4398 5.43297 18.3683 5.215 18.3397C4.99704 18.311 4.77556 18.3258 4.56333 18.3831C4.35109 18.4404 4.1523 18.5392 3.97838 18.6736C3.80447 18.8081 3.65888 18.9757 3.55 19.1666C3.33271 19.5493 3.2756 20.0024 3.39113 20.4271C3.50666 20.8517 3.78545 21.2134 4.16667 21.4333L19.1667 30.1C19.42 30.2462 19.7074 30.3233 20 30.3233C20.2926 30.3233 20.58 30.2462 20.8333 30.1L35.8333 21.4333C36.2146 21.2134 36.4933 20.8517 36.6089 20.4271C36.7244 20.0024 36.6673 19.5493 36.45 19.1666C36.3411 18.9757 36.1955 18.8081 36.0216 18.6736C35.8477 18.5392 35.6489 18.4404 35.4367 18.3831C35.2244 18.3258 35.003 18.311 34.785 18.3397C34.567 18.3683 34.3569 18.4398 34.1667 18.55V18.6166ZM34.1667 25.2833L20 33.3333L5.83333 25.2166C5.64311 25.1064 5.43297 25.035 5.215 25.0063C4.99704 24.9777 4.77556 24.9924 4.56333 25.0498C4.35109 25.1071 4.1523 25.2058 3.97838 25.3403C3.80447 25.4748 3.65888 25.6423 3.55 25.8333C3.33271 26.216 3.2756 26.6691 3.39113 27.0937C3.50666 27.5184 3.78545 27.8801 4.16667 28.1L19.1667 36.7666C19.42 36.9129 19.7074 36.9899 20 36.9899C20.2926 36.9899 20.58 36.9129 20.8333 36.7666L35.8333 28.1C36.2146 27.8801 36.4933 27.5184 36.6089 27.0937C36.7244 26.6691 36.6673 26.216 36.45 25.8333C36.3411 25.6423 36.1955 25.4748 36.0216 25.3403C35.8477 25.2058 35.6489 25.1071 35.4367 25.0498C35.2244 24.9924 35.003 24.9777 34.785 25.0063C34.567 25.035 34.3569 25.1064 34.1667 25.2166V25.2833Z" fill="white"/>
</svg>
