<svg width="41" height="40" viewBox="0 0 41 40" fill="none" xmlns="http://www.w3.org/2000/svg">
<path d="M33.9853 3.33667C33.7664 3.33655 33.5496 3.37957 33.3474 3.46328C33.1451 3.547 32.9613 3.66976 32.8065 3.82455C32.6517 3.97934 32.529 4.16312 32.4453 4.36538C32.3615 4.56765 32.3185 4.78443 32.3186 5.00334V6.06454C30.913 7.80738 29.1364 9.21486 27.1182 10.1845C25.1 11.1542 22.891 11.6617 20.652 11.67H10.652C9.32634 11.6715 8.05541 12.1987 7.11804 13.1361C6.18067 14.0734 5.65342 15.3444 5.65198 16.67V20.0033C5.65342 21.329 6.18067 22.5999 7.11804 23.5373C8.05541 24.4746 9.32634 25.0019 10.652 25.0033H11.4583L7.45374 34.3473C7.34492 34.6008 7.30074 34.8773 7.32516 35.152C7.34959 35.4267 7.44186 35.6911 7.5937 35.9213C7.74553 36.1516 7.95217 36.3405 8.19506 36.4712C8.43796 36.6019 8.7095 36.6702 8.98531 36.67H15.652C15.9782 36.6702 16.2973 36.5745 16.5697 36.3948C16.842 36.2151 17.0554 35.9593 17.1836 35.6593L21.7231 25.0667C23.7742 25.2173 25.7726 25.7867 27.595 26.7399C29.4174 27.693 31.025 29.0097 32.3186 30.6085V31.67C32.3186 32.112 32.4942 32.536 32.8068 32.8485C33.1194 33.1611 33.5433 33.3367 33.9853 33.3367C34.4273 33.3367 34.8513 33.1611 35.1638 32.8485C35.4764 32.536 35.652 32.112 35.652 31.67V5.00334C35.6521 4.78443 35.6091 4.56765 35.5254 4.36538C35.4417 4.16311 35.3189 3.97933 35.1641 3.82454C35.0093 3.66975 34.8255 3.54699 34.6233 3.46328C34.421 3.37957 34.2042 3.33654 33.9853 3.33667V3.33667ZM10.652 21.67C10.21 21.6697 9.78629 21.494 9.47379 21.1815C9.1613 20.869 8.98561 20.4453 8.98531 20.0033V16.67C8.98561 16.2281 9.1613 15.8043 9.4738 15.4918C9.78629 15.1793 10.21 15.0036 10.652 15.0033H12.3186V21.67H10.652ZM14.5533 33.3367H11.513L15.0839 25.0033H18.1243L14.5533 33.3367ZM32.3186 25.873C29.0324 23.1657 24.9098 21.6805 20.652 21.6699H15.652V15.0033H20.652C24.9098 14.9924 29.0325 13.5068 32.3186 10.7994V25.873Z" fill="white"/>
</svg>
