<svg width="25" height="24" viewBox="0 0 25 24" fill="none" xmlns="http://www.w3.org/2000/svg">
<path d="M18.2533 6.62C18.1518 6.37565 17.9576 6.18147 17.7133 6.08C17.593 6.02876 17.4639 6.00158 17.3333 6H7.33325C7.06804 6 6.81368 6.10536 6.62615 6.29289C6.43861 6.48043 6.33325 6.73478 6.33325 7C6.33325 7.26522 6.43861 7.51957 6.62615 7.70711C6.81368 7.89464 7.06804 8 7.33325 8H14.9233L6.62325 16.29C6.52952 16.383 6.45513 16.4936 6.40436 16.6154C6.35359 16.7373 6.32745 16.868 6.32745 17C6.32745 17.132 6.35359 17.2627 6.40436 17.3846C6.45513 17.5064 6.52952 17.617 6.62325 17.71C6.71621 17.8037 6.82682 17.8781 6.94868 17.9289C7.07053 17.9797 7.20124 18.0058 7.33325 18.0058C7.46526 18.0058 7.59597 17.9797 7.71783 17.9289C7.83969 17.8781 7.95029 17.8037 8.04325 17.71L16.3333 9.41V17C16.3333 17.2652 16.4386 17.5196 16.6261 17.7071C16.8137 17.8946 17.068 18 17.3333 18C17.5985 18 17.8528 17.8946 18.0404 17.7071C18.2279 17.5196 18.3333 17.2652 18.3333 17V7C18.3317 6.86932 18.3045 6.74022 18.2533 6.62V6.62Z" fill="#0D4DA1"/>
</svg>
