<svg width="25" height="24" viewBox="0 0 25 24" fill="none" xmlns="http://www.w3.org/2000/svg">
<path d="M18.5867 6.62C18.4852 6.37565 18.291 6.18147 18.0467 6.08C17.9265 6.02876 17.7974 6.00158 17.6667 6H7.66669C7.40147 6 7.14712 6.10536 6.95958 6.29289C6.77204 6.48043 6.66669 6.73478 6.66669 7C6.66669 7.26522 6.77204 7.51957 6.95958 7.70711C7.14712 7.89464 7.40147 8 7.66669 8H15.2567L6.95669 16.29C6.86296 16.383 6.78856 16.4936 6.7378 16.6154C6.68703 16.7373 6.66089 16.868 6.66089 17C6.66089 17.132 6.68703 17.2627 6.7378 17.3846C6.78856 17.5064 6.86296 17.617 6.95669 17.71C7.04965 17.8037 7.16025 17.8781 7.28211 17.9289C7.40397 17.9797 7.53468 18.0058 7.66669 18.0058C7.7987 18.0058 7.9294 17.9797 8.05126 17.9289C8.17312 17.8781 8.28372 17.8037 8.37669 17.71L16.6667 9.41V17C16.6667 17.2652 16.772 17.5196 16.9596 17.7071C17.1471 17.8946 17.4015 18 17.6667 18C17.9319 18 18.1863 17.8946 18.3738 17.7071C18.5613 17.5196 18.6667 17.2652 18.6667 17V7C18.6651 6.86932 18.6379 6.74022 18.5867 6.62V6.62Z" fill="#0D4DA1"/>
</svg>
