<svg width="41" height="40" viewBox="0 0 41 40" fill="none" xmlns="http://www.w3.org/2000/svg">
<path d="M32 3.33337H8.66668C7.3406 3.33337 6.06883 3.86016 5.13115 4.79784C4.19346 5.73552 3.66668 7.00729 3.66668 8.33337V31.6667C3.66668 32.9928 4.19346 34.2646 5.13115 35.2022C6.06883 36.1399 7.3406 36.6667 8.66668 36.6667H32C33.3261 36.6667 34.5979 36.1399 35.5355 35.2022C36.4732 34.2646 37 32.9928 37 31.6667V8.33337C37 7.00729 36.4732 5.73552 35.5355 4.79784C34.5979 3.86016 33.3261 3.33337 32 3.33337ZM27.15 6.66671L20.4833 13.3334H13.5167L20.1833 6.66671H27.15ZM7.00001 8.33337C7.00001 7.89135 7.17561 7.46742 7.48817 7.15486C7.80073 6.8423 8.22465 6.66671 8.66668 6.66671H15.4833L8.81668 13.3334H7.00001V8.33337ZM33.6667 31.6667C33.6667 32.1087 33.4911 32.5327 33.1785 32.8452C32.866 33.1578 32.442 33.3334 32 33.3334H8.66668C8.22465 33.3334 7.80073 33.1578 7.48817 32.8452C7.17561 32.5327 7.00001 32.1087 7.00001 31.6667V16.6667H33.6667V31.6667ZM33.6667 13.3334H25.1833L31.85 6.66671H32C32.442 6.66671 32.866 6.8423 33.1785 7.15486C33.4911 7.46742 33.6667 7.89135 33.6667 8.33337V13.3334Z" fill="white"></path>
</svg>
